<svg xmlns="http://www.w3.org/2000/svg" viewBox="0 0 63.33482 277.87335"><defs><style>.a{fill:#ff8000;}.b{fill:none;stroke:#ff8000;stroke-linecap:round;stroke-linejoin:round;stroke-width:2px;opacity:0.5;}.c{fill:#fff;stroke:#c26937;stroke-miterlimit:10;stroke-width:0.15px;}</style></defs><title>Asset 173</title><rect class="a" x="5.55374" y="220.09228" width="52.22734" height="52.22734" rx="25.60444" transform="translate(277.87335 214.53853) rotate(90)"/><path class="b" d="M62.33482,246.206a30.66738,30.66738,0,0,1-30.66738,30.66738h-.00006A30.66738,30.66738,0,0,1,1,246.206v-.00006a30.67729,30.67729,0,0,1,24.85619-30.11753l.0001-.82848V1"/><path class="c" d="M41.1809,236.79731a13.30585,13.30585,0,1,0,3.89717,9.40863A13.21872,13.21872,0,0,0,41.1809,236.79731Zm-7.66833-1.82973h3.12066a12.31145,12.31145,0,0,1,6.67141,7.1203H41.09275a1.12386,1.12386,0,0,0-.79475,1.91853l.17494.17493a.63121.63121,0,0,1,0,.8917.60944.60944,0,0,1-.862,0l-.42245-.42244a3.66249,3.66249,0,0,0-2.60682-1.07979h-.33912v-.426a3.79843,3.79843,0,0,0-1.1198-2.70351l-.52757-.52757a2.84861,2.84861,0,0,0-2.02752-.83986H31.51113a1.52231,1.52231,0,0,0-1.08349.4488l-.27407.274a1.5223,1.5223,0,0,0-.44879,1.0835.251.251,0,0,1-.25074.25074H28.995v-.6443a1.70528,1.70528,0,0,1,.5027-1.21369l.31007-.31006a1.46174,1.46174,0,0,0,.431-1.04056v-.1075a.03781.03781,0,0,1,.0378-.0378h5.18a1.19267,1.19267,0,1,0,0-2.38534h-1.944a.212.212,0,0,1,0-.42409Zm3.97017,13.382-.289.29071a8.22046,8.22046,0,0,0-1.21465,1.55906l-.52576.87468-.6575,1.08631a2.58018,2.58018,0,0,0-.373,1.33641v.0326a.04543.04543,0,0,1-.04538.04538h-.00021a.46833.46833,0,0,1-.46841-.46841,2.48049,2.48049,0,0,0-.73124-1.76543l-.24337-.24337a1.937,1.937,0,0,1-.57109-1.37867v-1.5625a1.425,1.425,0,0,0-1.42346-1.4234h-.18522a.80359.80359,0,0,1-.80269-.8027v-.81335a.86953.86953,0,0,1,.86853-.86853h4.23485l1.27752,1.27757a1.67371,1.67371,0,0,1,.49348,1.19132v.60772A1.12942,1.12942,0,0,0,37.48274,248.34956Zm-17.956-2.14362a12.307,12.307,0,0,1,.08959-1.47911h1.62315a2.00151,2.00151,0,0,1,1.42472.59017l.46549.46544a2.0987,2.0987,0,0,0,1.49381.61874,1.114,1.114,0,0,1,.79288.32841l.01023.01023a2.017,2.017,0,0,1,.59463,1.43559v.94816a2.68749,2.68749,0,0,1-.79225,1.91275l-1.01517,1.01516a4.57458,4.57458,0,0,0-1.303,2.59766A12.20267,12.20267,0,0,1,19.52669,246.20594Zm12.24558,12.24558a12.18983,12.18983,0,0,1-7.84825-2.85343v-.28748a3.52561,3.52561,0,0,1,1.03939-2.50939l1.01516-1.01516a3.74071,3.74071,0,0,0,1.10279-2.66243v-.94816a3.07026,3.07026,0,0,0-.90516-2.18533L26.166,245.98a2.16727,2.16727,0,0,0-1.54258-.63895,1.0454,1.0454,0,0,1-.74406-.3082l-.46549-.46549a3.05518,3.05518,0,0,0-2.17447-.90066h-1.4472a12.26632,12.26632,0,0,1,11.9801-9.7063q.61569,0,1.21639.06033a1.272,1.272,0,0,0,.52391,2.4312h1.944a.13253.13253,0,1,1,0,.26505H30.27666a1.09928,1.09928,0,0,0-1.098,1.098v.10751a.40849.40849,0,0,1-.12049.29082l-.31012.31012a2.75848,2.75848,0,0,0-.81324,1.96337v.71957a.986.986,0,0,0,.98489.985h.53441a1.31245,1.31245,0,0,0,1.311-1.311.46891.46891,0,0,1,.13826-.33381l.274-.274c.01076-.01076.02195-.02083.03351-.03043.00885.01034.0177.02062.02746.03043l1.05662,1.05662a.53.53,0,0,0,.75329.74576l.37107-.37108a.53019.53019,0,0,0,0-.74974l-.819-.819a1.79421,1.79421,0,0,1,1.24518.52852l.52762.52757a2.74508,2.74508,0,0,1,.80927,1.95378v.04331H30.82019a1.931,1.931,0,0,0-1.92876,1.92876v.8133a1.86506,1.86506,0,0,0,1.86292,1.86292h.18516a.36361.36361,0,0,1,.36324.36318v1.5625a2.99041,2.99041,0,0,0,.88157,2.1284l.24338.24337a1.42711,1.42711,0,0,1,.42075,1.01575A1.52854,1.52854,0,0,0,34.377,254.635h.0008a1.10706,1.10706,0,0,0,1.10523-1.10566v-.03255a1.52044,1.52044,0,0,1,.21978-.78742l.65782-1.08684.00085-.00138.52629-.87558a7.15981,7.15981,0,0,1,1.05784-1.35778l.59091-.59441a.82157.82157,0,0,0-.58264-1.40082.06756.06756,0,0,1-.06748-.06749v-.60772a2.727,2.727,0,0,0-.804-1.941l-.11742-.11742a2.60654,2.60654,0,0,1,1.47392.74152l.42244.42244a1.68029,1.68029,0,0,0,2.36133-2.39112l-.17493-.17494a.06362.06362,0,0,1,.045-.10861h2.5386a12.25038,12.25038,0,0,1-11.85907,15.30331Z"/><path class="c" d="M28.22052,237.40609a.5301.5301,0,0,0,.53011-.53011v-1.08705a.53011.53011,0,0,0-1.06022,0V236.876A.5301.5301,0,0,0,28.22052,237.40609Z"/><path class="c" d="M42.34217,249.579a.53.53,0,0,0-.68189.31155,10.59758,10.59758,0,0,1-9.888,6.86458.53011.53011,0,1,0,0,1.06022A11.61383,11.61383,0,0,0,42.65371,250.261.53019.53019,0,0,0,42.34217,249.579Z"/><path class="c" d="M29.19767,256.4389a10.50883,10.50883,0,0,1-1.51368-.505.53012.53012,0,1,0-.4112.97726,11.56739,11.56739,0,0,0,1.66693.55614.53014.53014,0,0,0,.25795-1.02842Z"/></svg>