<svg width="1219" height="37" viewBox="0 0 1219 37" fill="none" xmlns="http://www.w3.org/2000/svg">
<path d="M13.756 0H14.7493C18.1975 0.075763 21.5896 1.47738 24.0258 3.95862C23.1263 4.88671 22.208 5.77693 21.3272 6.70503C19.9591 5.45494 18.31 4.48896 16.5109 4.14802C13.8498 3.5798 10.9825 4.0912 8.75235 5.6254C6.31608 7.23537 4.66692 9.96284 4.31085 12.8797C3.9173 15.7587 4.72314 18.7892 6.57845 21.0242C8.35879 23.2024 11.0762 24.5662 13.8872 24.6609C16.5109 24.8124 19.247 23.9979 21.1585 22.1417C22.6578 20.8348 23.3512 18.846 23.5761 16.9141C20.4651 16.9141 17.3542 16.933 14.2433 16.9141V13.0123H27.3429C28.0175 17.1982 27.043 21.9144 23.8946 24.9071C21.7957 27.0285 18.8909 28.2785 15.9299 28.5248C13.0627 28.8089 10.1017 28.2596 7.55295 26.858C4.49826 25.2101 2.062 22.4258 0.862607 19.1491C-0.261821 16.1375 -0.280562 12.7282 0.768905 9.69767C1.72467 6.93231 3.56123 4.48896 5.92253 2.78429C8.19013 1.09856 10.945 0.170467 13.756 0Z" fill="#555555"/>
<path d="M88.9058 0.984863H92.9162V28.0322C91.5856 28.0322 90.2363 28.0511 88.9058 28.0133C88.9245 19.0164 88.9058 10.0006 88.9058 0.984863Z" fill="#555555"/>
<path d="M36.2628 10.3609C38.7366 9.88737 41.4165 10.4177 43.4592 11.914C45.3145 13.2399 46.6076 15.3233 47.0011 17.5962C47.5071 20.2289 46.87 23.1079 45.1833 25.1914C43.3655 27.5211 40.3857 28.7712 37.481 28.5818C34.8198 28.4302 32.2336 27.0854 30.6594 24.8883C28.8791 22.4639 28.4481 19.1304 29.4226 16.2893C30.3971 13.2399 33.1519 10.9102 36.2628 10.3609ZM36.8251 13.9596C35.8131 14.2248 34.876 14.8119 34.2014 15.6453C32.3836 17.8424 32.496 21.4222 34.5012 23.4678C35.6444 24.6421 37.3685 25.1914 38.9615 24.8694C40.442 24.6042 41.7351 23.6004 42.4472 22.2745C43.6841 20.0206 43.328 16.9143 41.4352 15.1529C40.2171 14.0164 38.4367 13.5429 36.8251 13.9596Z" fill="#555555"/>
<path d="M56.1262 10.3608C58.956 9.81154 62.0482 10.607 64.1659 12.6148C67.6141 15.74 67.9889 21.5927 65.0467 25.1915C63.2663 27.4643 60.3803 28.7144 57.5317 28.5819C54.8144 28.5061 52.1345 27.1424 50.5228 24.8884C48.705 22.4072 48.3114 18.9978 49.3422 16.0999C50.3729 13.1451 53.0715 10.8912 56.1262 10.3608ZM56.6884 13.9596C55.6764 14.2247 54.7394 14.8119 54.0648 15.6264C52.2657 17.7856 52.3406 21.3086 54.2709 23.3731C55.4141 24.6043 57.1944 25.2104 58.8436 24.8695C60.3053 24.5853 61.6172 23.6004 62.3293 22.2746C63.5474 20.0017 63.1914 16.8954 61.2798 15.1339C60.0617 13.9975 58.2814 13.5429 56.6884 13.9596Z" fill="#555555"/>
<path d="M72.976 11.459C75.1312 10.0953 77.9985 9.71645 80.3223 10.8908C81.0532 11.2128 81.6529 11.762 82.2338 12.3113C82.2526 11.7999 82.2338 11.2696 82.2526 10.7392C83.5082 10.7582 84.7638 10.7392 86.0382 10.7582V27.4639C86.0194 29.983 85.3823 32.6537 83.5832 34.4909C81.6154 36.5176 78.5982 37.1426 75.8808 36.7259C72.976 36.2903 70.4461 34.15 69.3216 31.4414C70.4461 30.8922 71.6267 30.4565 72.7886 29.9451C73.4446 31.4983 74.7751 32.8241 76.443 33.1272C78.1109 33.4302 80.0412 33.0135 81.1282 31.6119C82.2901 30.1724 82.2901 28.2026 82.2338 26.4411C81.3718 27.2934 80.3785 28.0511 79.1791 28.3352C76.5742 29.0739 73.7069 28.1647 71.7017 26.3843C69.6777 24.6038 68.4783 21.8574 68.5908 19.13C68.647 16.0426 70.3711 13.069 72.976 11.459ZM76.8553 13.8834C75.7122 14.0728 74.6439 14.7168 73.9131 15.607C72.1515 17.7284 72.1515 21.1188 73.9318 23.2022C74.9438 24.4334 76.5742 25.1152 78.1484 24.9448C79.6289 24.7933 80.997 23.8462 81.7279 22.5393C82.9647 20.3232 82.7586 17.3117 81.0907 15.3797C80.06 14.1865 78.4108 13.5993 76.8553 13.8834Z" fill="#555555"/>
<path d="M97.7295 12.4251C99.9784 10.3037 103.445 9.58397 106.331 10.7015C109.068 11.7432 110.81 14.376 111.691 17.0845C107.624 18.7892 103.577 20.4749 99.5099 22.1796C100.072 23.2592 100.934 24.2441 102.096 24.6419C103.726 25.229 105.675 25.0207 107.044 23.9221C107.587 23.5054 108.018 22.9561 108.43 22.4258C109.461 23.1266 110.492 23.8085 111.522 24.5093C110.061 26.7253 107.606 28.2785 104.963 28.5247C102.04 28.8846 98.9289 27.7481 97.0361 25.4374C93.9252 21.8007 94.225 15.7018 97.7295 12.4251ZM99.7347 15.9291C99.0976 16.8572 98.8352 17.9937 98.8539 19.1112C101.571 17.9747 104.289 16.8383 107.006 15.6829C106.556 14.6222 105.469 13.9782 104.364 13.8077C102.583 13.4858 100.728 14.4517 99.7347 15.9291Z" fill="#555555"/>
<path d="M212.352 31.3839H207.201V18.4044H203.691V14.1786H207.2V11.1716C207.2 7.60831 208.752 5.05273 213.89 5.05273C214.977 5.05273 216.683 5.27409 216.683 5.27409V9.19802H214.891C213.065 9.19802 212.352 9.7593 212.352 11.311V14.1786H216.614L216.235 18.4044H212.352L212.352 31.3839ZM224.172 13.8409C224.097 13.8409 224.02 13.8436 223.944 13.8456C219.167 13.8456 216.981 17.4771 216.981 22.6322C216.981 29.1262 219.816 31.7253 223.981 31.7253C226.364 31.7253 227.929 30.7117 228.881 28.82V31.3857H233.781V14.1804H228.881V16.8263C228.104 15.124 226.495 13.8611 224.172 13.8409ZM225.418 17.9064C227.425 17.9064 228.629 19.3208 228.629 21.7266L228.633 24.1838C228.633 25.8053 227.639 27.7023 225.418 27.7023C222.005 27.7023 222.096 23.9768 222.096 22.736C222.096 18.5621 223.915 17.9064 225.418 17.9064ZM235.76 22.7839C235.76 20.6932 235.661 13.8521 244.479 13.8521C248.019 13.8521 249.497 14.9897 249.497 14.9897L248.309 18.7139C248.309 18.7139 246.833 17.8924 244.91 17.8924C242.446 17.8924 240.874 19.3359 240.874 21.8757L240.876 23.6969C240.876 26.1373 242.393 27.7664 244.915 27.7664C246.667 27.7664 248.282 26.9371 248.282 26.9371L249.467 30.5836C249.467 30.5836 248.116 31.7284 244.504 31.7284C236.107 31.7284 235.76 25.5906 235.76 22.7839H235.76ZM278.227 13.8456C283.004 13.8456 285.224 17.4771 285.224 22.6322C285.224 29.1262 282.389 31.7253 278.224 31.7253C275.842 31.7253 274.08 30.7118 273.129 28.82V31.3857L268.29 31.3838V5.57587L273.427 5.12307V16.5932C274.169 14.5865 276.605 13.8456 278.227 13.8456H278.227ZM276.787 17.9064C274.781 17.9064 273.427 19.3208 273.427 21.7266L273.422 24.1838C273.419 25.8053 274.36 27.7023 276.787 27.7023C280.201 27.7023 280.11 23.9768 280.11 22.736C280.11 18.5621 278.291 17.9064 276.787 17.9064ZM258.41 13.8598C252.992 13.8598 250.132 16.8454 250.132 22.1511V23.1368C250.132 30.0231 254.149 31.7961 258.938 31.7961C263.593 31.7961 265.699 30.4802 265.699 30.4802L264.738 26.9761C264.738 26.9761 262.26 28.0418 259.554 28.0418C256.748 28.0418 255.542 27.3192 255.233 24.5943H266.11V21.7831C266.11 16.0278 262.9 13.8597 258.41 13.8597L258.41 13.8598ZM258.541 17.3687C260.416 17.3687 261.632 18.531 261.565 21.2267H255.242C255.352 18.3895 256.662 17.3688 258.541 17.3688V17.3687ZM295.467 13.8362C289.903 13.8362 286.974 17.0051 286.974 22.684C286.974 30.4758 292.023 31.73 295.476 31.73C300.531 31.73 303.895 28.9793 303.895 22.7548C303.895 16.2761 300.113 13.8362 295.467 13.8362ZM295.397 17.9205C297.843 17.9205 298.813 19.7711 298.813 21.8776V23.6887C298.813 26.2406 297.456 27.7166 295.388 27.7166C293.453 27.7166 292.093 26.3359 292.093 23.6887V21.8776C292.093 19.0544 293.711 17.9205 295.397 17.9205ZM314.128 13.8362C308.564 13.8362 305.635 17.0051 305.635 22.684C305.635 30.4758 310.684 31.73 314.138 31.73C319.193 31.73 322.556 28.9793 322.556 22.7548C322.556 16.2761 318.774 13.8362 314.128 13.8362ZM314.058 17.9205C316.505 17.9205 317.474 19.7711 317.474 21.8776V23.6887C317.474 26.2406 316.118 27.7166 314.049 27.7166C312.114 27.7166 310.754 26.3359 310.754 23.6887V21.8776C310.754 19.0544 312.372 17.9205 314.058 17.9205ZM324.497 31.3839V5.57587L329.649 5.12307V22.4212L334.76 14.1786H340.201L334.869 22.7155L340.406 31.3839H334.95L329.649 22.967V31.3839H324.497Z" fill="#555555"/>
<path d="M453.402 32.4437L445.152 32.2912C442.481 32.2381 439.804 32.3442 437.185 31.7937C433.202 30.9712 432.919 26.9385 432.624 23.5558C432.217 18.8001 432.375 13.9582 433.143 9.24235C433.576 6.59588 435.282 5.01729 437.92 4.84483C446.826 4.22135 455.79 4.29432 464.676 4.58616C465.615 4.61269 466.56 4.75861 467.485 4.92443C472.053 5.73362 472.164 10.3036 472.46 14.1506C472.755 18.0374 472.63 21.9441 472.066 25.8043C471.613 29.0013 470.747 31.681 467.091 31.9396C462.511 32.2779 458.035 32.5498 453.441 32.4636C453.441 32.4437 453.415 32.4437 453.402 32.4437ZM448.552 24.3518C452.004 22.3487 455.39 20.3787 458.822 18.3889C455.364 16.3858 451.984 14.4159 448.552 12.4261V24.3518Z" fill="#FF6161"/>
<path d="M538.627 28.8092C538.47 29.4592 538.332 29.9699 538.194 30.5138H534.965V5.34229H538.732V14.6282C538.929 14.3762 539.028 14.2701 539.113 14.1573C539.756 13.2619 540.589 12.6782 541.666 12.4527C543.379 12.1144 544.842 12.8772 545.361 14.542C545.695 15.5767 545.912 16.6844 545.938 17.7656C545.991 20.5447 545.951 23.3172 545.853 26.0964C545.813 26.9454 545.557 27.8143 545.236 28.6102C544.179 31.2368 540.727 31.6348 539.014 29.3597C538.909 29.2204 538.811 29.0679 538.627 28.8092ZM538.811 21.8845V26.4877C538.811 27.2372 539.205 27.6949 539.946 27.8673C540.675 28.0398 541.265 27.7546 541.561 27.0714C541.685 26.7862 541.81 26.4877 541.817 26.1892C541.889 23.3769 541.955 20.5646 541.974 17.7457C541.974 17.2217 541.85 16.6778 541.692 16.167C541.397 15.2451 540.583 14.9731 539.782 15.5104C539.179 15.9216 538.811 16.5053 538.811 17.2814V21.8845ZM528.573 12.8108H532.517V30.5271H529.44C529.328 29.8572 529.216 29.1674 529.085 28.3582C528.875 28.6699 528.75 28.8689 528.619 29.0679C527.595 30.5603 526.145 31.071 524.432 30.799C522.969 30.5603 522.089 29.4194 521.892 27.549C521.833 26.9918 521.807 26.428 521.807 25.8709C521.794 21.7253 521.807 17.5666 521.807 13.4211V12.7976H525.797V13.5206C525.797 17.5268 525.784 21.5264 525.81 25.5326C525.81 26.103 525.869 26.6933 525.968 27.2638C526.079 27.8474 526.499 28.0597 527.064 28.0199C527.976 27.9469 528.606 27.2637 528.606 26.3484V13.5935C528.573 13.3348 528.573 13.0961 528.573 12.8108ZM501.417 12.7976H505.381V13.5471C505.381 17.5334 505.368 21.5131 505.394 25.4862C505.394 26.0566 505.446 26.6469 505.565 27.2041C505.715 27.8607 506.096 28.073 506.746 27.9867C507.645 27.8607 508.19 27.2306 508.196 26.3086V13.62V12.8241H512.14V30.5271H509.076C508.964 29.8704 508.852 29.1939 508.708 28.3383C508.511 28.6367 508.4 28.8092 508.288 28.9883C507.264 30.5072 505.827 31.0644 504.075 30.7924C502.67 30.5802 501.811 29.5322 501.548 27.8143C501.476 27.277 501.423 26.7464 501.423 26.2091C501.41 21.9044 501.41 17.5798 501.41 13.2751L501.417 12.7976ZM499.383 22.256C499.369 22.8529 499.33 23.4499 499.297 24.0468C499.146 25.8377 499.074 28.3781 497.643 29.6847C496.731 30.5072 495.576 30.8057 494.382 30.8455C493.85 30.8587 493.312 30.8587 492.78 30.7858C490.267 30.4011 489.099 29.2801 488.679 26.4877C488.2 23.2642 488.16 19.9875 488.731 16.764C489.322 13.4277 491.356 12.247 494.52 12.4659C497.473 12.6782 498.792 14.6349 499.14 17.4206C499.33 19.0192 499.422 20.6376 499.383 22.256ZM495.366 21.6458C495.366 20.5115 495.392 19.3707 495.353 18.2365C495.327 17.5798 495.241 16.9166 495.104 16.2665C494.946 15.517 494.474 15.1589 493.883 15.1721C493.305 15.1854 492.899 15.5436 492.689 16.24C492.616 16.4987 492.538 16.764 492.538 17.0227C492.538 18.8003 492.525 20.5845 492.511 22.3621C492.498 24.0203 492.288 25.7581 492.807 27.3433C492.964 27.8275 493.371 28.0929 493.903 28.0929C494.421 28.0929 494.762 27.8342 494.953 27.3699C495.104 27.0117 495.235 26.6204 495.235 26.2357C495.281 24.7101 495.366 23.1779 495.366 21.6458ZM482.891 18.3094C483.238 16.5915 483.566 14.9134 483.927 13.2287C484.38 11.0863 484.886 8.94391 485.332 6.79487C485.443 6.27088 485.653 6.14486 486.146 6.15812C487.202 6.19792 488.278 6.17139 489.407 6.17139C489.04 7.53775 488.679 8.83778 488.324 10.1179C487.202 14.1374 486.08 18.1702 484.971 22.2029C484.886 22.5147 484.846 22.8529 484.846 23.1846C484.833 25.3867 484.846 27.5821 484.846 29.7842V30.5006H480.994C480.981 30.3016 480.955 30.1026 480.955 29.9036C480.955 28.6566 480.856 27.403 480.968 26.1693C481.25 23.2045 480.318 20.4784 479.563 17.7191C478.566 14.0711 477.555 10.4098 476.558 6.76171C476.505 6.58925 476.485 6.40354 476.433 6.19129H480.364C481.191 10.2174 482.024 14.2435 482.891 18.3094ZM558.263 22.9325H551.621C551.694 24.279 551.72 25.5591 551.858 26.826C551.956 27.7081 552.435 28.0862 553.19 28.0929C553.977 28.1061 554.437 27.7081 554.62 26.8326C554.68 26.5474 554.719 26.2622 554.745 25.9704C554.771 25.7117 554.785 25.4331 554.804 25.0617C555.926 25.1213 557.022 25.1877 558.105 25.2341C558.735 27.1245 557.6 29.5521 555.69 30.3016C554.187 30.8985 552.645 30.8985 551.109 30.4409C549.974 30.1026 549.128 29.373 548.747 28.252C548.392 27.2041 548.058 26.1096 547.986 25.0152C547.789 22.3157 547.717 19.5896 548.123 16.8834C548.196 16.4324 548.32 16.0012 548.458 15.5635C549.009 13.7593 550.21 12.6517 552.068 12.4659C553.078 12.3664 554.122 12.4062 555.119 12.5787C556.734 12.8639 557.593 14.0379 557.967 15.5767C558.138 16.2997 558.263 17.0426 558.289 17.7788C558.296 19.4702 558.263 21.1483 558.263 22.9325ZM554.489 20.6044C554.489 19.2712 554.502 18.0176 554.476 16.7574C554.476 16.4589 554.365 16.1471 554.253 15.8619C554.03 15.3048 553.564 15.1522 553.006 15.1522C552.448 15.1522 552.094 15.4374 551.956 15.9482C551.536 17.4803 551.674 19.0457 551.687 20.6177C552.691 20.6044 553.603 20.6044 554.489 20.6044Z" fill="#555555"/>
<path d="M515.185 9.42163H511.28V6.22461H522.936V9.40173H519.057V30.5008H515.192L515.185 9.42163Z" fill="#555555"/>
<path d="M665.454 1.384C663.627 1.59089 660.888 2.45028 659.329 3.30966C655.14 5.58544 652.306 9.13438 650.889 13.861C650.605 14.784 650.275 17.2985 650.29 18.4762C650.29 19.5107 650.605 22.0411 650.794 22.6458C650.889 22.9323 651.093 23.6166 651.267 24.1418C651.55 25.033 652.92 27.834 653.156 28.0249C653.203 28.0727 653.455 28.391 653.692 28.757C654.274 29.6323 655.802 31.1919 656.951 32.0831C657.833 32.7675 660.321 34.2157 660.636 34.2316C660.714 34.2316 660.73 33.6268 660.683 32.8311C660.573 31.0646 660.903 28.6615 661.612 26.2107C661.738 25.7969 661.832 25.2558 661.832 25.0171C661.832 24.7784 661.895 24.5237 661.974 24.4442C662.053 24.3487 662.195 23.8871 662.273 23.4097C662.368 22.9323 662.525 22.2002 662.635 21.7864C662.793 21.1658 662.777 20.927 662.557 20.2586C662.242 19.2401 662.226 17.585 662.541 16.7893C663.281 14.8954 664.1 14.1793 665.486 14.1793C667.155 14.1793 667.958 15.4524 667.643 17.585C667.501 18.5558 667.107 20.0836 666.855 20.561C666.792 20.7042 666.682 21.1021 666.635 21.4363C666.572 21.7864 666.446 22.2798 666.367 22.5503C666.147 23.171 666.572 24.3805 667.139 24.842C667.674 25.2717 668.792 25.399 669.816 25.1603C670.54 25.0012 670.839 24.8102 671.595 24.0781C672.493 23.1869 673.17 22.1525 673.17 21.6591C673.17 21.5159 673.249 21.3249 673.343 21.2294C673.784 20.7838 674.02 17.3144 673.689 15.8503C673.327 14.2429 672.209 12.6674 670.761 11.7444C669.312 10.8054 666.32 10.5349 664.478 11.1714C663.187 11.617 662.037 12.365 661.297 13.2403C660.636 14.0201 659.943 15.2933 659.943 15.7389C659.943 15.8981 659.864 16.1049 659.77 16.2004C659.675 16.2959 659.565 16.9007 659.518 17.5532C659.439 18.5239 659.502 18.9696 659.785 19.9244C659.974 20.5769 660.321 21.3408 660.525 21.6273C660.951 22.2002 660.951 22.423 660.557 23.9508C660.447 24.3646 660.258 24.7465 660.148 24.7943C659.156 25.1762 657.14 22.7731 656.463 20.386C656.211 19.4788 656.195 16.2482 656.447 15.2933C656.557 14.8954 656.746 14.3543 656.872 14.0679C656.998 13.7973 657.109 13.5268 657.109 13.4631C657.109 13.3995 657.423 12.8584 657.817 12.2695C659.864 9.15029 663.187 7.49518 667.391 7.49518C668.351 7.49518 669.343 7.55884 669.611 7.63841C671.784 8.32274 672.367 8.54554 673.217 9.05481C674.87 10.0574 676.067 11.4261 677.264 13.7178C677.343 13.861 677.453 14.2429 677.5 14.5612C677.563 14.8795 677.673 15.1819 677.752 15.2296C677.831 15.2774 677.894 16.3118 677.894 17.5372C677.894 19.7494 677.736 20.6406 677.075 22.4548C676.335 24.4442 674.429 26.6404 672.697 27.4997C671.705 27.9772 669.847 28.5024 669.107 28.5024C668.115 28.5024 666.163 27.6748 665.627 27.0064C665.375 26.704 665.139 26.8154 665.139 27.2451C665.139 27.4043 665.076 27.6748 664.982 27.834C664.903 27.9772 664.761 28.4228 664.682 28.8207C664.226 30.9214 663.58 32.6242 662.588 34.2157C662.289 34.709 662.541 34.9955 663.36 35.1069C663.769 35.1705 664.32 35.2819 664.572 35.3615C665.202 35.5684 668.619 35.5366 669.769 35.3297C670.808 35.1387 672.493 34.6613 673.249 34.343C678.004 32.3696 681.61 28.3591 683.169 23.2506C684.003 20.5292 684.05 17.3622 683.295 14.1793C683.043 13.1448 682.964 12.9061 682.287 11.3147C681.311 8.99115 679.106 6.26976 676.87 4.59874C674.949 3.16643 673.06 2.33888 670.115 1.62272C669.296 1.43175 666.383 1.2726 665.454 1.384ZM707.45 7.12915C706.835 7.22464 705.859 8.24317 705.607 9.03889C705.34 9.91419 705.607 10.8531 706.363 11.5852C708.032 13.2244 710.929 11.6807 710.567 9.32535C710.347 7.82939 708.993 6.87452 707.45 7.12915ZM690.286 8.06811C690.144 8.22725 690.144 27.4202 690.302 27.643C690.381 27.7703 691.058 27.818 692.38 27.8021L694.349 27.7862L694.427 24.5556C694.49 21.9297 694.553 21.2931 694.742 21.1817C694.868 21.1021 695.939 21.0225 697.12 21.0225C699.702 21.0225 700.789 20.8316 701.97 20.195C703.513 19.3515 704.411 18.142 704.899 16.2163C705.198 15.0068 705.198 14.1315 704.883 12.8902C704.599 11.7762 704.473 11.5056 703.796 10.5985C702.962 9.46858 702.112 8.84792 700.726 8.35457C699.954 8.09994 699.309 8.05219 695.136 8.00445C692.538 7.97262 690.349 8.00445 690.286 8.06811ZM698.931 12.0308C699.986 12.365 700.505 12.8425 700.742 13.7018C701.041 14.8318 700.82 15.8821 700.159 16.5187C699.435 17.203 698.789 17.3622 696.679 17.3622C695.293 17.3622 694.868 17.3144 694.679 17.1076C694.475 16.9166 694.427 16.4551 694.427 14.6408C694.427 11.7762 694.412 11.7921 696.6 11.7921C697.545 11.7921 698.458 11.8876 698.931 12.0308ZM726.55 11.0919C726.55 12.19 726.471 13.2244 726.392 13.3995C726.282 13.6064 726.062 13.7018 725.684 13.7018C725.4 13.7018 725.133 13.7655 725.101 13.861C725.085 13.9406 725.085 14.4976 725.133 15.0864C725.211 16.1368 725.227 16.1527 725.7 16.2641C725.967 16.3118 726.266 16.4073 726.361 16.471C726.503 16.5505 726.55 17.8078 726.55 20.9907C726.55 25.2717 726.566 25.4309 726.912 26.0674C727.636 27.4202 728.77 27.8976 731.069 27.834L732.612 27.7862L732.659 26.2425L732.707 24.6829H732.313C731.715 24.6829 730.833 24.2054 730.738 23.8235C730.691 23.6325 730.644 21.9456 730.644 20.0517C730.644 17.4418 730.691 16.5665 730.849 16.4391C730.959 16.3437 731.4 16.2482 731.825 16.2163L732.612 16.1686V13.7814L731.746 13.7337C731.274 13.7018 730.833 13.5904 730.77 13.495C730.707 13.3836 730.644 12.3491 730.644 11.1874V9.08664H726.55V11.0919ZM785.079 9.18212C785.016 9.24578 784.969 10.2484 784.969 11.4102C784.969 13.67 784.953 13.7018 784.087 13.7018C783.693 13.7018 783.693 13.7178 783.741 14.9273C783.788 16.1368 783.804 16.1686 784.213 16.2163C784.433 16.2482 784.701 16.3596 784.78 16.4551C784.874 16.5665 784.969 18.4921 785.016 20.943C785.063 23.2983 785.142 25.4468 785.205 25.7014C785.394 26.4016 786.37 27.2929 787.299 27.5952C788.339 27.9454 790.984 27.9772 791.252 27.643C791.378 27.4997 791.425 26.9268 791.393 26.0993L791.346 24.7624L790.795 24.667C790.197 24.5715 789.519 24.2532 789.346 23.9826C789.283 23.8871 789.22 22.1525 789.22 20.1313C789.22 15.9776 789.126 16.2482 790.496 16.2482C791.393 16.2482 791.472 16.089 791.393 14.6408L791.346 13.7814L790.323 13.7018L789.299 13.6223L789.22 11.3942L789.142 9.16621L787.158 9.11846C786.071 9.10255 785.142 9.13438 785.079 9.18212ZM718.755 13.3199C717.984 13.5268 717.086 14.052 716.488 14.6726C715.764 15.4365 715.575 15.3888 715.496 14.418L715.449 13.7814H711.512V27.7862L713.496 27.818C715.449 27.8658 715.496 27.8499 715.59 27.4997C715.638 27.3088 715.685 25.2876 715.685 22.9959C715.685 18.4603 715.701 18.333 716.63 17.4418C717.039 17.0439 717.26 16.9643 718.141 16.9166L719.165 16.8529L719.779 17.5054C720.503 18.2693 720.425 17.5373 720.488 24.1259C720.503 25.8765 720.519 27.4202 720.535 27.5793C720.566 27.8021 720.818 27.834 722.582 27.8021L724.582 27.7862V16.6142L724.125 15.7071C723.338 14.1315 722.125 13.3836 720.267 13.2881C719.606 13.2722 718.929 13.2722 718.755 13.3199ZM738.438 13.3199C736.738 13.7814 735.919 14.2429 734.864 15.2933C733.447 16.7415 732.801 18.4285 732.801 20.7042C732.817 24.6988 735.289 27.6589 738.942 28.009C742.06 28.3114 744.469 27.3883 746.012 25.3035C746.233 25.0012 746.705 24.0304 746.705 23.8553C746.705 23.7917 745.792 23.728 744.69 23.728H742.674L742.202 24.2214C741.651 24.7943 740.879 25.1603 740.17 25.1603C739.462 25.1603 738.375 24.651 737.871 24.1099C737.494 23.6803 736.942 22.4389 736.942 22.0092C736.942 21.866 738.092 21.8183 741.792 21.8183C744.453 21.8183 746.705 21.7546 746.815 21.6909C747.052 21.5318 746.831 19.0014 746.485 18.0783C745.776 16.1527 744.438 14.5294 743.084 13.9565C742.69 13.7973 742.233 13.5904 742.076 13.5109C741.745 13.3358 738.942 13.1926 738.438 13.3199ZM741.509 16.8052C742.123 17.2349 742.658 18.2534 742.58 18.8263C742.532 19.1924 742.501 19.1924 739.84 19.2401C736.769 19.2878 736.753 19.2719 737.242 18.1261C737.588 17.3304 738.281 16.6142 738.926 16.4073C739.667 16.1686 740.863 16.3596 741.509 16.8052ZM761.743 13.3199C759.916 13.8132 758.641 14.6249 757.649 15.8821C757.255 16.3914 756.94 16.8688 756.94 16.9643C756.94 17.0439 756.83 17.3304 756.688 17.6009C756.547 17.8555 756.342 18.6513 756.232 19.3674C755.681 22.7731 757.192 25.956 760.027 27.3883L761.113 27.9454H763.396C765.758 27.9454 765.963 27.8976 767.412 27.1178C768.467 26.5449 770.199 24.3168 769.931 23.8712C769.868 23.7917 768.971 23.728 767.916 23.728H765.979L765.585 24.1895C764.01 25.9879 761.066 25.0648 760.436 22.5662C760.342 22.232 760.341 21.9456 760.42 21.8819C760.499 21.8342 762.751 21.8023 765.443 21.8183C769.285 21.8183 770.325 21.7864 770.34 21.6273C770.482 19.638 769.537 16.6938 768.356 15.4206C767.695 14.7045 766.546 13.9087 765.979 13.7655C765.727 13.7018 765.443 13.5904 765.333 13.5109C765.113 13.3358 762.231 13.1926 761.743 13.3199ZM764.199 16.4232C764.908 16.6779 765.727 17.5691 765.853 18.2534C766.042 19.2878 766.057 19.2878 763.129 19.2401C760.499 19.1924 760.483 19.1924 760.436 18.8263C760.373 18.3807 760.924 17.2826 761.397 16.8688C762.074 16.2959 763.255 16.1049 764.199 16.4232ZM775.442 13.3199C772.214 14.0997 771.049 15.2615 771.033 17.6805C771.033 20.2905 772.324 21.3886 776.151 22.0729C778.78 22.5344 779.536 22.9482 779.505 23.9508C779.489 24.667 779.001 25.1285 778.025 25.3354C776.796 25.6059 775.836 25.3035 775.064 24.4282L774.45 23.728H772.545C771.002 23.728 770.64 23.7757 770.64 23.9508C770.64 24.4123 771.269 25.6218 771.789 26.2266C772.277 26.7518 772.655 27.0064 774.135 27.7225C774.277 27.8021 775.049 27.9294 775.82 28.0249C777.253 28.2 779.741 28.0408 780.371 27.7225C780.513 27.6589 780.922 27.452 781.268 27.2929C782.166 26.8632 783.016 25.8924 783.331 24.9693C783.678 23.919 783.583 22.4548 783.095 21.4363C782.512 20.2427 780.969 19.3833 778.67 18.9696C775.71 18.4444 775.663 18.4285 775.19 17.9669C774.623 17.3781 774.623 17.1712 775.19 16.5346C775.647 16.0254 775.678 16.0095 776.938 16.0095C778.198 16.0095 778.229 16.0254 778.686 16.5346C778.938 16.8211 779.143 17.1553 779.143 17.2826C779.143 17.4736 779.473 17.5213 781.111 17.5213C783.284 17.5213 783.221 17.5691 782.843 16.4391C782.15 14.4339 780.371 13.4154 777.411 13.304C776.497 13.2722 775.615 13.2722 775.442 13.3199ZM754.5 13.6541C753.807 13.8928 752.846 14.6885 752.547 15.2615C752.248 15.8344 751.98 15.5957 751.901 14.6408L751.823 13.7814H747.886L747.839 20.4655C747.823 24.1418 747.839 27.3088 747.886 27.5157C747.965 27.8658 748.012 27.8658 749.902 27.834C750.988 27.818 751.87 27.7225 751.933 27.6271C751.996 27.5475 752.059 25.8605 752.059 23.8871C752.059 20.7679 752.09 20.2109 752.358 19.5107C752.909 18.0624 754.09 17.203 755.57 17.203C755.98 17.203 756.153 17.1235 756.2 16.9166C756.31 16.4551 756.326 14.3066 756.232 13.8292C756.137 13.4472 756.059 13.3836 755.633 13.3995C755.35 13.4154 754.846 13.5268 754.5 13.6541ZM706.001 13.8928C705.954 14.0042 705.938 17.1394 705.954 20.8634L706.001 27.6271L707.875 27.7066C709.008 27.7544 709.827 27.7225 709.953 27.6271C710.126 27.4997 710.174 26.147 710.174 20.7361C710.189 17.0439 710.142 13.9406 710.095 13.861C709.937 13.6223 706.08 13.6541 706.001 13.8928Z" fill="#555555"/>
<path d="M987.026 7.01757H982.273V0.36377H971.837L967.038 7.01757H958.509L955.658 9.86919V7.01757H949.004V0.36377H928.092V7.01757H898.673L893.872 0.36377H883.417V23.1768L896.724 36.4844H910.032V32.6822L913.834 36.4844H939.499V32.6822L943.301 36.4844H955.658V32.6822L959.46 36.4844H983.223L991.778 27.9295V11.7703L987.026 7.01757ZM899.576 16.523H892.922V18.4241H899.576V26.0284H889.12L885.318 22.2262V2.26485H892.922V8.91865H899.576V16.523ZM928.092 26.0284H905.279L901.477 22.2262V8.91865H909.081V18.4241H910.982V8.91865H918.587V18.4241H920.488V8.91865H928.092V26.0284ZM937.597 26.0284H929.993V8.91865H937.597V26.0284ZM937.597 7.01757H929.993V2.26485H937.597V7.01757ZM953.757 16.523H947.103V18.4241H953.757V26.0284H943.301L939.499 22.2262V2.26485H947.103V8.91865H953.757V16.523ZM970.866 16.523H963.262V18.4241H970.866V26.0284H959.46L955.658 22.2262V12.7208L959.46 8.91865H970.866V16.523ZM989.877 26.0284H982.273V16.523H980.372V26.0284H972.768V2.26485H980.372V8.91865H986.075L989.877 12.7208V26.0284Z" fill="#555555"/>
<path d="M1127.32 14.7289C1127.32 12.3097 1124.97 9.74045 1120.9 9.74045C1116.33 9.74045 1111.31 13.0939 1110.54 19.784C1109.75 26.5409 1113.96 29.544 1118.2 29.544C1122.43 29.544 1124.65 27.8923 1126.92 25.6901C1124.97 23.2376 1122.45 24.3721 1121.97 24.6223C1121.43 24.8893 1120.75 25.2563 1119.35 25.2563C1117.71 25.2563 1116.04 24.5222 1116.04 21.4691C1126.52 20.4347 1127.32 17.148 1127.32 14.7289ZM1122.13 15.1293C1122.07 15.8801 1121.77 17.1647 1116.46 17.8821C1117.58 13.9114 1119.72 13.6111 1120.7 13.6111C1121.62 13.6111 1122.2 14.3285 1122.13 15.1293ZM1104.38 15.78C1104.38 15.78 1102.13 22.8538 1101.95 23.4378C1101.88 22.8372 1100.23 10.1409 1100.23 10.1409C1096.39 10.1409 1094.34 12.877 1093.25 15.7633C1093.25 15.7633 1090.52 22.8538 1090.28 23.4545C1090.27 22.9039 1089.87 15.8467 1089.87 15.8467C1089.63 12.3097 1086.4 10.1575 1083.78 10.1575L1086.95 29.3939C1090.97 29.3772 1093.14 26.6577 1094.27 23.7714C1094.27 23.7714 1096.69 17.5151 1096.79 17.2314C1096.81 17.4984 1098.53 29.3939 1098.53 29.3939C1102.56 29.3939 1104.73 26.8412 1105.9 24.0551L1111.56 10.1575C1107.57 10.1575 1105.47 12.877 1104.38 15.78ZM1142.14 9.70708C1139.65 9.70708 1137.75 11.0585 1136.15 13.0438V13.0271L1137.58 1.46533C1134.28 1.46533 1131.59 4.33493 1131.08 8.60596L1128.57 29.2437C1130.48 29.2437 1132.49 28.6931 1133.58 27.2917C1134.55 28.543 1136 29.544 1138.15 29.544C1143.72 29.544 1147.54 23.0707 1147.54 16.9979C1147.51 11.4589 1144.82 9.70708 1142.14 9.70708ZM1141.62 19.6339C1141.04 23.0207 1139.15 25.323 1137.33 25.323C1135.5 25.323 1134.71 24.5055 1134.71 24.5055C1135.06 21.5358 1135.28 19.7173 1135.95 18.149C1136.62 16.5808 1138.2 14.0782 1139.85 14.0782C1141.47 14.0782 1142.2 16.2304 1141.62 19.6339ZM1161.46 10.1575H1157.57L1157.59 9.95734C1157.85 7.42141 1158.45 6.08672 1160.44 5.86983C1161.79 5.73636 1162.39 5.03564 1162.54 4.26819C1162.66 3.66758 1163.03 1.58212 1163.03 1.58212C1155.22 1.53207 1152.77 4.90218 1152.13 10.0408L1152.11 10.1575H1152.03C1150.76 10.1575 1149.36 11.5923 1149.13 13.4109L1149.04 14.0782H1151.65L1149.46 32.13L1148.79 35.3666C1148.88 35.3666 1148.98 35.3833 1149.06 35.3833C1152.72 35.2498 1155.05 32.3636 1155.57 28.1759L1157.27 14.0782H1158.49C1159.69 14.0782 1161.09 12.877 1161.34 10.8749L1161.46 10.1575ZM1181.68 9.82387C1177.19 9.82387 1172.95 13.1272 1171.65 18.3159C1170.35 23.5045 1172.32 29.6441 1178.93 29.6441C1185.52 29.6441 1189.32 23.2542 1189.32 17.9321C1189.32 12.6434 1185.73 9.82387 1181.68 9.82387ZM1183.5 19.4671C1183.26 21.8195 1182.23 25.3898 1179.39 25.3898C1176.54 25.3898 1176.94 21.2188 1177.22 19.2335C1177.52 17.1146 1178.71 14.0949 1181.26 14.0949C1183.55 14.0949 1183.76 16.8143 1183.5 19.4671ZM1211.49 15.78C1211.49 15.78 1209.24 22.8538 1209.06 23.4378C1208.99 22.8372 1207.34 10.1409 1207.34 10.1409C1203.5 10.1409 1201.45 12.877 1200.36 15.7633C1200.36 15.7633 1197.63 22.8538 1197.39 23.4545C1197.38 22.9039 1196.98 15.8467 1196.98 15.8467C1196.74 12.3097 1193.51 10.1575 1190.89 10.1575L1194.04 29.3939C1198.06 29.3772 1200.23 26.6577 1201.37 23.7714C1201.37 23.7714 1203.78 17.5151 1203.87 17.2314C1203.9 17.4984 1205.6 29.3939 1205.6 29.3939C1209.64 29.3939 1211.81 26.8412 1212.98 24.0551L1218.63 10.1575C1214.66 10.1575 1212.56 12.877 1211.49 15.78ZM1165.13 1.58212L1161.86 27.9591L1161.19 31.2124C1161.27 31.2124 1161.37 31.2291 1161.46 31.2291C1164.98 31.179 1167.48 28.0925 1167.95 24.2052L1169.83 9.0731C1170.4 4.45171 1167.65 1.58212 1165.13 1.58212Z" fill="#555555"/>
</svg>
